inDegrees=no
num_controls=7
num_derivatives=13
num_iterations=106
num_multipliers=7
num_parameters=0
num_slacks=7
num_states=26
objective=0.430999
objective_accelerations=0.051428
objective_balance=0.006957
objective_effort=0.031798
objective_height=0.339669
objective_ligament=0.001147
solver_duration=1388.366281
status=Solve_Succeeded
success=true
DataType=double
version=3
OpenSimVersion=4.5
endheader
time	/jointset/ground_pelvis/pelvis_tilt/value	/jointset/ground_pelvis/pelvis_tx/value	/jointset/ground_pelvis/pelvis_ty/value	/jointset/hip_l/hip_flexion_l/value	/jointset/hip_l/hip_adduction_l/value	/jointset/hip_l/hip_rotation_l/value	/jointset/back/lumbar_extension/value	/jointset/patellofemoral_l/patellar_flexion_l/value	/jointset/knee_l/knee_flexion_l/value	/jointset/knee_l/knee_adduction_l/value	/jointset/knee_l/knee_rotation_l/value	/jointset/ankle_l/ankle_angle_l/value	/jointset/subtalar_l/subtalar_angle_l/value	/jointset/ground_pelvis/pelvis_tilt/speed	/jointset/ground_pelvis/pelvis_tx/speed	/jointset/ground_pelvis/pelvis_ty/speed	/jointset/hip_l/hip_flexion_l/speed	/jointset/hip_l/hip_adduction_l/speed	/jointset/hip_l/hip_rotation_l/speed	/jointset/back/lumbar_extension/speed	/jointset/patellofemoral_l/patellar_flexion_l/speed	/jointset/knee_l/knee_flexion_l/speed	/jointset/knee_l/knee_adduction_l/speed	/jointset/knee_l/knee_rotation_l/speed	/jointset/ankle_l/ankle_angle_l/speed	/jointset/subtalar_l/subtalar_angle_l/speed	/forceset/tau_hip_flexion_l	/forceset/tau_hip_adduction_l	/forceset/tau_hip_rotation_l	/forceset/tau_knee_flexion_l	/forceset/tau_ankle_angle_l	/forceset/tau_subtalar_angle_l	/forceset/tau_lumbar_extension	lambda_cid13_p0	lambda_cid13_p1	lambda_cid13_p2	lambda_cid13_p3	lambda_cid13_p4	lambda_cid13_p5	lambda_cid14_p0	/jointset/ground_pelvis/pelvis_tilt/accel	/jointset/ground_pelvis/pelvis_tx/accel	/jointset/ground_pelvis/pelvis_ty/accel	/jointset/hip_l/hip_flexion_l/accel	/jointset/hip_l/hip_adduction_l/accel	/jointset/hip_l/hip_rotation_l/accel	/jointset/back/lumbar_extension/accel	/jointset/patellofemoral_l/patellar_flexion_l/accel	/jointset/knee_l/knee_flexion_l/accel	/jointset/knee_l/knee_adduction_l/accel	/jointset/knee_l/knee_rotation_l/accel	/jointset/ankle_l/ankle_angle_l/accel	/jointset/subtalar_l/subtalar_angle_l/accel	gamma_cid13_p0	gamma_cid13_p1	gamma_cid13_p2	gamma_cid13_p3	gamma_cid13_p4	gamma_cid13_p5	gamma_cid14_p0
0.5	-0.3357793299074835	-0.0313732957992167	0.7646179679444602	1.17409600005379	-0.3045430082097728	0.01283937954445497	-0.3206718058154416	0.8204965123019845	0.820496512301971	-0.1731474673209453	0.165999716804935	0.1642018767421051	-0.01888633513763471	-0.4419658067265121	-0.1688716979093499	-0.519185496428379	2.158373676775511	0.01206936570930704	0.7083403809848533	-0.6371086679221329	2.134080081912336	2.13408008191233	-0.009893217361831824	0.04639832065279022	0.5410836576771232	0.1021493037206936	-0.1859158785899392	0.02760625276217277	-0.02608107675485462	-0.2578515925604633	0.1024193714154428	0.03033477940266375	0.1844168591176148	-5.255630104034547	-14.51428944032575	4.493153536852052	-1.30556271920136	-601.5910916172368	-51.55670497723892	-20.2473482051734	0.5201079350119253	0.5341719242973156	-0.4682013277997972	-1.226149615655101	0.7111280943559695	-0.3523273119394831	1.508250358602248	-1.290605784603974	-1.290605784603972	0.09212622834226454	-0.08430094212139801	-0.6010749118453642	0.7261367124044725	-4.337861944845958e-07	-5.629865508775127e-07	2.698207027174238e-06	2.883987621912011e-07	-5.392875557281112e-07	-2.93756173123544e-07	-4.303516668504272e-07
0.51	-0.3401719864831999	-0.0330350506410526	0.7594038618332395	1.195614579944037	-0.3043882265770583	0.01990608598848116	-0.326966851548052	0.8417691055859743	0.8417691055859842	-0.1732452041836393	0.1664592314678649	0.1695812915856972	-0.01783024753979803	-0.4365084196126345	-0.1634606036408725	-0.5235203938291075	2.145039106592269	0.01886968395811468	0.7048872173804913	-0.6217961264492925	2.120135423358198	2.120135423358191	-0.009615181468668766	0.04550332842889774	0.5347129674005685	0.1090555647265301	-0.1926091708453499	0.02800715412237353	-0.02612472065135342	-0.2605344194537643	0.1006070382894358	0.03052194436507064	0.1900316944197179	-6.08551465170865	-14.33714430458977	4.335695797167433	-1.003539058773813	-606.2710848234738	-51.27240820213306	-18.94083075798195	0.5670830420064227	0.5474353166018848	-0.3989384699109799	-1.432637312401569	0.6615485890725313	-0.3592426505109474	1.558408864227123	-1.491784965725033	-1.491784965724587	0.001496356545955563	-0.0928155535676195	-0.6680016447853004	0.6707450215890399	-4.060683071700681e-07	-4.626327548725461e-07	2.596893302557963e-06	2.868488627478845e-07	-5.098301857407255e-07	-2.003221173934303e-07	-4.076129123818874e-07
0.52	-0.3445083633992913	-0.03464212311250793	0.7541498458432713	1.216990708813903	-0.3041660287820698	0.02693477444329847	-0.3331056413014137	0.8628931744694416	0.8628931744694749	-0.1733389898700534	0.1669096527703467	0.1748944124146787	-0.01670552248651982	-0.4307098748015271	-0.1579352238332388	-0.5271674721779002	2.129883472699309	0.02555259816408461	0.7007367831430739	-0.605857472072365	2.104375201807807	2.104375201807807	-0.009102982105839798	0.04457964856319324	0.5278248547550233	0.1158767948089984	-0.1993024631007606	0.02840805548257435	-0.02616836454785245	-0.2632172463470652	0.09879470516342892	0.03070910932747758	0.1956465297218211	-6.920491883721551	-14.16111417321955	4.180709963489002	-0.7134260275915204	-611.0475643027266	-51.07441735996995	-17.63360880951839	0.5883394744578699	0.5570290321285715	-0.3306375174126421	-1.590362357599181	0.6876472857884274	-0.491781438550591	1.633472939419633	-1.653718383854743	-1.653718383854741	0.1389589222754457	-0.09003847048721669	-0.7045593856434261	0.7091305277308074	-3.818413742538364e-07	-3.555853334973924e-07	2.508334300292759e-06	2.894130846825422e-07	-4.860331871248536e-07	-1.099380277305086e-07	-3.860791297416394e-07
0.53	-0.3487851799000878	-0.03619344362530974	0.7488628602212377	1.238206338764409	-0.3038775999339751	0.03391899365899036	-0.3390819810755997	0.8838505541971838	0.8838505541972128	-0.1734267587085709	0.167350330421698	0.1801361057392713	-0.01551304340757963	-0.4246042352308226	-0.1523165600009978	-0.5301077703443338	2.112942587114775	0.03209959276578152	0.6960395566776857	-0.5893167944331869	2.086789752847681	2.086789752847681	-0.008463678889256504	0.04352982924306754	0.5204262221436302	0.1225854842097961	-0.2059134997417964	0.02859901023761876	-0.02614867962353627	-0.2660367885284839	0.09706428643021348	0.0307866608713322	0.2011763855260277	-7.741596795295523	-13.93434029600191	4.011272708288567	-0.3720380903283903	-615.9394738601625	-50.83699607107376	-16.32942572736674	0.629026513357101	0.5661910196750221	-0.2575383903390971	-1.790981513278833	0.6328511350235175	-0.4691494581201033	1.678418425916599	-1.857531832345033	-1.85753183234516	0.02450446452476807	-0.1168524416070357	-0.7706318093104765	0.6464659338867701	-3.542194382378802e-07	-2.562136800760386e-07	2.404691009540105e-06	2.878877862815389e-07	-4.577981283327776e-07	-2.411471091003098e-08	-3.627711557060147e-07
0.54	-0.3529994699421811	-0.03768819630760838	0.7435501091327237	1.25924355388819	-0.3035247760223306	0.04085414936851092	-0.3448901034234439	0.9046227646992743	0.9046227646992988	-0.1735085168262875	0.1677796301240816	0.1853011894156653	-0.01425453187710496	-0.4182045830609034	-0.1466216577326073	-0.5323205654739821	2.094200507354306	0.03843161087400618	0.6909240819088077	-0.572213986804021	2.067341356677412	2.067341356677411	-0.007900837945673341	0.04230405876967376	0.5125029251153081	0.1290832851158942	-0.212524536382835	0.02878996499266319	-0.02612899469922033	-0.2688563307099024	0.0953338676970024	0.03086421241518687	0.2067062413302344	-8.567384010243519	-13.70831066147377	3.843742510118844	-0.04346714978774675	-620.9196469938399	-50.67872188131671	-15.03359646538106	0.6471419943007956	0.5722767193584615	-0.1851369100555879	-1.950601192786316	0.6446519870939743	-0.5754310992487949	1.745898937417117	-2.026307825883325	-2.026307825883317	0.1236664676754195	-0.125228701140486	-0.8094922690292082	0.6669528287908677	-3.228413285796755e-07	-1.653343656673996e-07	2.284358718758783e-06	2.81837912190017e-07	-4.246528753031992e-07	5.666264446774242e-08	-3.375002465095479e-07
